# xmcd
#
# Track frame offsets:
#	150
#	19923
#	42384
#	55371
#	69115
#	94931
#	109944
#	119922
#	138574
#	151141
#	164919
#
# Disc length: 2490 seconds
#
# Revision: 0
# Processed by: cddbd v1.5.2PL0 Copyright (c) Steve Scherf et al.
# Submitted via: EZCDAudioConverter 2.1.7.1
#
DISCID=a209b80b
DTITLE=Jungle By Night - The Traveller
DYEAR=2016
DGENRE=
TTITLE0=Kingfisher
TTITLE1=The Ottoman Highlands
TTITLE2=Cruise Control
TTITLE3=Polydans
TTITLE4=Caldera
TTITLE5=Infinite
TTITLE6=Extortion
TTITLE7=Morning Stretch
TTITLE8=Culture Shock
TTITLE9=Following A Broken Compass
TTITLE10=Bout Du Monde
EXTD=
EXTT0=
EXTT1=
EXTT2=
EXTT3=
EXTT4=
EXTT5=
EXTT6=
EXTT7=
EXTT8=
EXTT9=
EXTT10=
PLAYORDER=
